<svg width="70" height="70" viewBox="0 0 70 70" fill="none" xmlns="http://www.w3.org/2000/svg">
<g clip-path="url(#clip0_47_293)">
<path d="M34.9999 69.9999C54.3299 69.9999 69.9999 54.3299 69.9999 34.9999C69.9999 15.67 54.3299 0 34.9999 0C15.67 0 0 15.67 0 34.9999C0 54.3299 15.67 69.9999 34.9999 69.9999Z" fill="#F57328"/>
<path d="M50.5555 58.3333C31.2257 58.3333 15.5556 42.6631 15.5556 23.3333C15.5556 15.4221 18.183 8.126 22.6093 2.26433C9.39666 7.26836 0 20.0339 0 34.9999C0 54.3297 15.6701 69.9999 34.9999 69.9999C46.4187 69.9999 56.5574 64.5295 62.9461 56.0689C59.0936 57.528 54.9194 58.3333 50.5555 58.3333Z" fill="#E25921"/>
<path d="M46.6995 36.2962H69.9672C69.9829 35.8654 70.0001 35.4346 70.0001 34.9999C70.0001 34.5652 69.9832 34.1345 69.9672 33.7037H46.6995C47.0726 23.9006 51.6561 15.163 58.6831 9.23533C58.0388 8.64266 57.3687 8.07842 56.6812 7.53469C49.2787 13.932 44.476 23.2613 44.1072 33.7036H36.2963V0.0329492C35.8654 0.0169531 35.4347 0 34.9999 0C34.5652 0 34.1345 0.0169531 33.7037 0.0329492V33.7037H25.8931C25.5241 23.2616 20.7216 13.9323 13.3191 7.53483C12.6314 8.07829 11.9616 8.64266 11.3171 9.23547C18.3442 15.163 22.9276 23.9007 23.3008 33.7038H0.0329492C0.0169531 34.1345 0 34.5652 0 34.9999C0 35.4347 0.0169531 35.8654 0.0329492 36.2962H23.3007C22.9276 46.0993 18.3441 54.8368 11.317 60.7645C11.9614 61.3572 12.6314 61.9214 13.319 62.4652C20.7215 56.0678 25.5241 46.7386 25.893 36.2963H33.7036V69.967C34.1345 69.9826 34.5652 69.9999 34.9999 69.9999C35.4347 69.9999 35.8654 69.9829 36.2962 69.9669V36.2962H44.1067C44.4757 46.7383 49.2783 56.0676 56.6807 62.465C57.3684 61.9216 58.0382 61.3572 58.6827 60.7644C51.6561 54.837 47.0724 46.0993 46.6995 36.2962Z" fill="#5B5D6E"/>
<path d="M0 34.9999C0 35.4347 0.0169531 35.8654 0.0329492 36.2962H18.0456C17.7064 35.4465 17.3913 34.5846 17.1184 33.7036H0.0507226C0.0348632 34.1361 0 34.5635 0 34.9999Z" fill="#464655"/>
<path d="M16.5999 14.8323C16.8568 13.8036 17.1636 12.7956 17.5094 11.8054C16.2316 10.271 14.8319 8.84282 13.3217 7.53743C12.6341 8.08075 11.9683 8.64936 11.324 9.24163C13.2874 10.8984 15.0579 12.774 16.5999 14.8323Z" fill="#464655"/>
<path d="M24.1203 46.2575C23.4293 45.4614 22.7736 44.6346 22.1558 43.7781C20.34 50.5019 16.4951 56.3965 11.3166 60.7645C11.9609 61.3572 12.631 61.9214 13.3186 62.4652C18.2643 58.1911 22.0438 52.6076 24.1203 46.2575Z" fill="#464655"/>
<path d="M55.7173 57.9465C54.6763 58.1013 53.6209 58.2097 52.5521 58.2702C53.8124 59.7754 55.1911 61.177 56.6757 62.4605C57.3632 61.9171 58.0328 61.3524 58.6771 60.7595C57.6356 59.8807 56.6455 58.9435 55.7173 57.9465Z" fill="#464655"/>
<path d="M36.2961 69.9612V55.2955C35.4129 54.9008 34.5463 54.4759 33.7036 54.012V69.9671C34.1344 69.9828 34.5652 70 34.9998 70C35.4351 69.9999 35.8647 69.9769 36.2961 69.9612Z" fill="#464655"/>
</g>
<defs>
<clipPath id="clip0_47_293">
<rect width="70" height="70" fill="white"/>
</clipPath>
</defs>
</svg>
