<svg width="70" height="70" viewBox="0 0 70 70" fill="none" xmlns="http://www.w3.org/2000/svg">
<g clip-path="url(#clip0_47_227)">
<path d="M69.0242 44.2472C68.0736 43.2966 66.6414 43.0171 65.403 43.542C61.7225 45.1009 57.8191 45.8915 53.8012 45.8915C46.8611 45.8915 40.2845 43.5274 34.9913 39.1803C34.2335 38.5579 33.5016 37.8947 32.799 37.1921C24.1967 28.5897 21.7045 15.7918 26.4494 4.58818C26.9737 3.35019 26.6945 1.91752 25.7437 0.966916C24.7933 0.0163128 23.3608 -0.262866 22.1224 0.261859C17.8167 2.08609 13.9486 4.69605 10.6253 8.0194C-3.53008 22.1748 -3.52967 45.2082 10.6262 59.3646C17.175 65.9131 25.7843 69.6498 34.9913 69.9743C35.4268 69.9895 35.8632 70 36.3012 70C45.998 70 55.115 66.2233 61.9723 59.3661C65.2956 56.0423 67.9059 52.174 69.7294 47.8689C70.254 46.6306 69.975 45.1981 69.0242 44.2472Z" fill="#3E72CB"/>
<path d="M69.0243 44.2472C68.0736 43.2966 66.6414 43.0171 65.403 43.542C61.7225 45.1008 57.8191 45.8915 53.8012 45.8915C46.8611 45.8915 40.2845 43.5273 34.9913 39.1802V69.974C35.4268 69.9892 35.8632 69.9997 36.3012 69.9997C45.998 69.9997 55.1151 66.223 61.9723 59.3658C65.2957 56.042 67.9059 52.1737 69.7294 47.8686C70.254 46.6306 69.975 45.198 69.0243 44.2472Z" fill="#4185F9"/>
</g>
<defs>
<clipPath id="clip0_47_227">
<rect width="70" height="70" fill="white"/>
</clipPath>
</defs>
</svg>
