<svg width="80" height="80" viewBox="0 0 80 80" fill="none" xmlns="http://www.w3.org/2000/svg">
<g clip-path="url(#clip0_47_279)">
<path d="M80 54.2666H0V62.5884H80V54.2666Z" fill="#E7E7E7"/>
<path d="M24.2006 54.1958L15.9244 62.5277L15.8183 62.587H0V53.0878H18.5363L24.2006 54.1958Z" fill="#C9C9C9"/>
<path d="M80 54.2678H0V28.5797C0 26.4608 0.906563 24.5073 2.39953 23.1528C3.16406 22.4567 4.08313 21.9206 5.11563 21.6005L17.1547 17.8663C20.7486 16.7511 24.6591 17.7223 27.3267 20.3934L28.217 21.2064L33.8597 26.3545L35.4444 27.7989L37.4338 29.6139L40.8586 32.7402C41.553 33.2042 42.258 33.6467 42.9739 34.0694C43.7797 34.5478 44.6 34.9994 45.4328 35.4239C46.9241 36.1884 48.4547 36.8683 50.0178 37.4619C50.9495 37.818 51.8922 38.1419 52.8455 38.435C52.885 38.4477 52.9228 38.4584 52.9623 38.4709C55.3942 39.212 57.8909 39.7499 60.4291 40.0791C62.3609 40.3274 64.318 40.455 66.2877 40.455C70.0741 40.455 73.5025 42.0019 75.983 44.5005C78.4656 47.0008 80 50.4527 80 54.2678Z" fill="#A5D61D"/>
<path d="M46.9172 54.2678H0V28.5797C0 26.4608 0.906562 24.5073 2.39953 23.1528C3.52203 29.5923 10.2152 54.2678 46.9172 54.2678Z" fill="#96C11E"/>
<path d="M37.4341 29.6139L12.7802 54.2678H5.94672L33.8598 26.3545L35.4447 27.7991L37.4341 29.6139Z" fill="#6F8F16"/>
<path d="M80 54.2669H60.4295V40.0783C62.3614 40.3266 64.3184 40.4542 66.2881 40.4542C70.0745 40.4542 73.5029 42.0011 75.9834 44.4997C78.4656 46.9999 80 50.4517 80 54.2669Z" fill="#6F8F16"/>
<path d="M35.4447 27.7991L9.17016 54.2678H0V49.6234L28.2172 21.2066L28.5589 20.8612C29.5105 19.9025 30.7552 19.4241 32.0017 19.4241C33.2483 19.4241 34.493 19.9025 35.4445 20.8612C37.3459 22.7769 37.3459 25.8833 35.4447 27.7991Z" fill="#57555C"/>
<path d="M10.5338 45.7759C10.1886 45.7759 9.84329 45.6442 9.57985 45.3809C9.05297 44.8539 9.05297 43.9998 9.57985 43.473L23.5625 29.4903C24.0894 28.9636 24.9436 28.9636 25.4703 29.4903C25.9972 30.0173 25.9972 30.8714 25.4703 31.3983L11.4877 45.3809C11.2242 45.6442 10.8789 45.7759 10.5338 45.7759Z" fill="#787780"/>
<path d="M45.4331 35.4239L40.1358 40.7591C39.8731 41.0253 39.526 41.1584 39.1789 41.1584C38.8353 41.1584 38.4917 41.0272 38.2274 40.7663C37.6985 40.2409 37.6967 39.3866 38.2219 38.8578L42.9742 34.0695C43.7802 34.548 44.6003 34.9994 45.4331 35.4239Z" fill="#6F8F16"/>
<path d="M52.8459 38.435C52.828 38.4584 52.8064 38.4817 52.783 38.5052L46.9459 44.3853C46.6833 44.6516 46.3361 44.7847 45.9891 44.7847C45.6455 44.7847 45.3019 44.6552 45.0394 44.3944C44.5105 43.8691 44.5069 43.0147 45.0322 42.4859L50.0183 37.462C50.95 37.8181 51.8925 38.1419 52.8459 38.435Z" fill="#6F8F16"/>
</g>
<defs>
<clipPath id="clip0_47_279">
<rect width="80" height="80" fill="white"/>
</clipPath>
</defs>
</svg>
